<mxfile host="app.diagrams.net" modified="2024-08-12T13:36:34.936Z" agent="Mozilla/5.0 (Windows NT 10.0; Win64; x64) AppleWebKit/537.36 (KHTML, like Gecko) Chrome/127.0.0.0 Safari/537.36" etag="xnvQliURVrZnf4ZS09RW" version="24.5.5" type="device">
  <diagram name="Page-1" id="cDqsURlm3kqTUiGrijYc">
    <mxGraphModel dx="842" dy="446" grid="1" gridSize="10" guides="1" tooltips="1" connect="1" arrows="1" fold="1" page="1" pageScale="1" pageWidth="850" pageHeight="1100" math="0" shadow="0">
      <root>
        <mxCell id="0" />
        <mxCell id="1" parent="0" />
        <mxCell id="4wRRyNsoWkF-4CCvMTkh-2" value="&lt;font style=&quot;font-size: 9px;&quot;&gt;Counter&lt;/font&gt;" style="rounded=0;whiteSpace=wrap;html=1;fillColor=#f5f5f5;fontColor=#333333;strokeColor=#666666;" vertex="1" parent="1">
          <mxGeometry x="640" y="330" width="50" height="70" as="geometry" />
        </mxCell>
        <mxCell id="4wRRyNsoWkF-4CCvMTkh-3" value="" style="triangle;whiteSpace=wrap;html=1;" vertex="1" parent="1">
          <mxGeometry x="640" y="380" width="10" height="10" as="geometry" />
        </mxCell>
        <mxCell id="4wRRyNsoWkF-4CCvMTkh-5" value="" style="endArrow=none;html=1;rounded=0;endFill=0;" edge="1" parent="1">
          <mxGeometry width="50" height="50" relative="1" as="geometry">
            <mxPoint x="610" y="385" as="sourcePoint" />
            <mxPoint x="640" y="384.8" as="targetPoint" />
          </mxGeometry>
        </mxCell>
        <mxCell id="4wRRyNsoWkF-4CCvMTkh-6" value="&lt;font style=&quot;font-size: 8px;&quot;&gt;CLK&lt;/font&gt;" style="text;html=1;align=center;verticalAlign=middle;resizable=0;points=[];autosize=1;strokeColor=none;fillColor=none;fontStyle=1" vertex="1" parent="1">
          <mxGeometry x="580" y="370" width="40" height="30" as="geometry" />
        </mxCell>
        <mxCell id="4wRRyNsoWkF-4CCvMTkh-7" value="&lt;font style=&quot;font-size: 9px;&quot;&gt;Q&lt;/font&gt;" style="text;html=1;align=center;verticalAlign=middle;resizable=0;points=[];autosize=1;strokeColor=none;fillColor=none;" vertex="1" parent="1">
          <mxGeometry x="670" y="330" width="30" height="30" as="geometry" />
        </mxCell>
        <mxCell id="4wRRyNsoWkF-4CCvMTkh-8" value="&lt;font style=&quot;font-size: 9px;&quot;&gt;D&lt;/font&gt;" style="text;html=1;align=center;verticalAlign=middle;resizable=0;points=[];autosize=1;strokeColor=none;fillColor=none;" vertex="1" parent="1">
          <mxGeometry x="630" y="330" width="30" height="30" as="geometry" />
        </mxCell>
        <mxCell id="4wRRyNsoWkF-4CCvMTkh-9" value="Mux" style="shadow=0;dashed=0;align=center;html=1;strokeWidth=1;shape=mxgraph.electrical.abstract.mux2;whiteSpace=wrap;fillColor=#f5f5f5;fontColor=#333333;strokeColor=#666666;" vertex="1" parent="1">
          <mxGeometry x="510" y="295" width="60" height="80" as="geometry" />
        </mxCell>
        <mxCell id="4wRRyNsoWkF-4CCvMTkh-11" value="Mux" style="shadow=0;dashed=0;align=center;html=1;strokeWidth=1;shape=mxgraph.electrical.abstract.mux2;whiteSpace=wrap;fillColor=#f5f5f5;fontColor=#333333;strokeColor=#666666;" vertex="1" parent="1">
          <mxGeometry x="395" y="260" width="60" height="80" as="geometry" />
        </mxCell>
        <mxCell id="4wRRyNsoWkF-4CCvMTkh-12" value="&lt;font style=&quot;font-size: 8px;&quot;&gt;IN&lt;/font&gt;" style="text;html=1;align=center;verticalAlign=middle;resizable=0;points=[];autosize=1;strokeColor=none;fillColor=none;fontStyle=1" vertex="1" parent="1">
          <mxGeometry x="480" y="330" width="30" height="30" as="geometry" />
        </mxCell>
        <mxCell id="4wRRyNsoWkF-4CCvMTkh-14" value="" style="endArrow=none;html=1;rounded=0;entryX=1;entryY=0.5;entryDx=0;entryDy=-5;entryPerimeter=0;exitX=0;exitY=0.2;exitDx=0;exitDy=3;exitPerimeter=0;" edge="1" parent="1" source="4wRRyNsoWkF-4CCvMTkh-9" target="4wRRyNsoWkF-4CCvMTkh-11">
          <mxGeometry width="50" height="50" relative="1" as="geometry">
            <mxPoint x="540" y="320" as="sourcePoint" />
            <mxPoint x="590" y="270" as="targetPoint" />
            <Array as="points">
              <mxPoint x="455" y="314" />
            </Array>
          </mxGeometry>
        </mxCell>
        <mxCell id="4wRRyNsoWkF-4CCvMTkh-15" value="&lt;font style=&quot;font-size: 8px;&quot;&gt;Load&lt;/font&gt;" style="text;html=1;align=center;verticalAlign=middle;resizable=0;points=[];autosize=1;strokeColor=none;fillColor=none;fontStyle=1" vertex="1" parent="1">
          <mxGeometry x="520" y="370" width="40" height="30" as="geometry" />
        </mxCell>
        <mxCell id="4wRRyNsoWkF-4CCvMTkh-18" value="" style="endArrow=none;html=1;rounded=0;exitX=1;exitY=0.5;exitDx=0;exitDy=-5;exitPerimeter=0;entryX=0.333;entryY=0.5;entryDx=0;entryDy=0;entryPerimeter=0;" edge="1" parent="1" source="4wRRyNsoWkF-4CCvMTkh-9" target="4wRRyNsoWkF-4CCvMTkh-8">
          <mxGeometry width="50" height="50" relative="1" as="geometry">
            <mxPoint x="590" y="390" as="sourcePoint" />
            <mxPoint x="640" y="340" as="targetPoint" />
            <Array as="points">
              <mxPoint x="570" y="345" />
              <mxPoint x="610" y="345" />
            </Array>
          </mxGeometry>
        </mxCell>
        <mxCell id="4wRRyNsoWkF-4CCvMTkh-19" value="&lt;span style=&quot;font-size: 8px;&quot;&gt;Down&lt;/span&gt;" style="text;html=1;align=center;verticalAlign=middle;resizable=0;points=[];autosize=1;strokeColor=none;fillColor=none;fontStyle=1" vertex="1" parent="1">
          <mxGeometry x="415" y="390" width="40" height="30" as="geometry" />
        </mxCell>
        <mxCell id="4wRRyNsoWkF-4CCvMTkh-20" value="&lt;font style=&quot;font-size: 10px;&quot;&gt;Subtractor&lt;/font&gt;" style="rounded=0;whiteSpace=wrap;html=1;fillColor=#dae8fc;strokeColor=#6c8ebf;" vertex="1" parent="1">
          <mxGeometry x="315" y="300" width="70" height="20" as="geometry" />
        </mxCell>
        <mxCell id="4wRRyNsoWkF-4CCvMTkh-23" style="edgeStyle=orthogonalEdgeStyle;rounded=0;orthogonalLoop=1;jettySize=auto;html=1;exitX=0;exitY=0.6000000000000001;exitDx=0;exitDy=3;exitPerimeter=0;entryX=1.01;entryY=0.584;entryDx=0;entryDy=0;entryPerimeter=0;endArrow=none;endFill=0;" edge="1" parent="1" source="4wRRyNsoWkF-4CCvMTkh-11" target="4wRRyNsoWkF-4CCvMTkh-20">
          <mxGeometry relative="1" as="geometry" />
        </mxCell>
        <mxCell id="4wRRyNsoWkF-4CCvMTkh-24" value="" style="endArrow=none;html=1;rounded=0;exitX=0.667;exitY=0.667;exitDx=0;exitDy=0;exitPerimeter=0;entryX=0;entryY=0.75;entryDx=0;entryDy=0;" edge="1" parent="1" target="4wRRyNsoWkF-4CCvMTkh-20">
          <mxGeometry width="50" height="50" relative="1" as="geometry">
            <mxPoint x="689.9999999999999" y="345.01" as="sourcePoint" />
            <mxPoint x="290" y="310" as="targetPoint" />
            <Array as="points">
              <mxPoint x="710" y="345" />
              <mxPoint x="710" y="420" />
              <mxPoint x="290" y="420" />
              <mxPoint x="290" y="315" />
            </Array>
          </mxGeometry>
        </mxCell>
        <mxCell id="4wRRyNsoWkF-4CCvMTkh-26" value="" style="endArrow=none;html=1;rounded=0;entryX=-0.002;entryY=0.325;entryDx=0;entryDy=0;entryPerimeter=0;" edge="1" parent="1" target="4wRRyNsoWkF-4CCvMTkh-20">
          <mxGeometry width="50" height="50" relative="1" as="geometry">
            <mxPoint x="300" y="307" as="sourcePoint" />
            <mxPoint x="280" y="300" as="targetPoint" />
          </mxGeometry>
        </mxCell>
        <mxCell id="4wRRyNsoWkF-4CCvMTkh-27" value="&lt;font style=&quot;font-size: 8px;&quot;&gt;1&lt;/font&gt;" style="text;html=1;align=center;verticalAlign=middle;resizable=0;points=[];autosize=1;strokeColor=none;fillColor=none;" vertex="1" parent="1">
          <mxGeometry x="280" y="290" width="30" height="30" as="geometry" />
        </mxCell>
        <mxCell id="4wRRyNsoWkF-4CCvMTkh-29" value="Mux" style="shadow=0;dashed=0;align=center;html=1;strokeWidth=1;shape=mxgraph.electrical.abstract.mux2;whiteSpace=wrap;fillColor=#f5f5f5;fontColor=#333333;strokeColor=#666666;" vertex="1" parent="1">
          <mxGeometry x="270" y="200" width="60" height="80" as="geometry" />
        </mxCell>
        <mxCell id="4wRRyNsoWkF-4CCvMTkh-31" style="edgeStyle=orthogonalEdgeStyle;rounded=0;orthogonalLoop=1;jettySize=auto;html=1;exitX=1;exitY=0.5;exitDx=0;exitDy=-5;exitPerimeter=0;entryX=0;entryY=0.2;entryDx=0;entryDy=3;entryPerimeter=0;endArrow=none;endFill=0;" edge="1" parent="1" source="4wRRyNsoWkF-4CCvMTkh-29" target="4wRRyNsoWkF-4CCvMTkh-11">
          <mxGeometry relative="1" as="geometry" />
        </mxCell>
        <mxCell id="4wRRyNsoWkF-4CCvMTkh-32" value="&lt;span style=&quot;font-size: 8px;&quot;&gt;Up&lt;/span&gt;" style="text;html=1;align=center;verticalAlign=middle;resizable=0;points=[];autosize=1;strokeColor=none;fillColor=none;fontStyle=1" vertex="1" parent="1">
          <mxGeometry x="240" y="340" width="30" height="30" as="geometry" />
        </mxCell>
        <mxCell id="4wRRyNsoWkF-4CCvMTkh-34" value="&lt;font style=&quot;font-size: 10px;&quot;&gt;Adder&lt;/font&gt;" style="rounded=0;whiteSpace=wrap;html=1;fillColor=#f8cecc;strokeColor=#b85450;" vertex="1" parent="1">
          <mxGeometry x="160" y="240" width="70" height="20" as="geometry" />
        </mxCell>
        <mxCell id="4wRRyNsoWkF-4CCvMTkh-36" value="" style="endArrow=none;html=1;rounded=0;entryX=0;entryY=0.6000000000000001;entryDx=0;entryDy=3;entryPerimeter=0;" edge="1" parent="1" target="4wRRyNsoWkF-4CCvMTkh-29">
          <mxGeometry width="50" height="50" relative="1" as="geometry">
            <mxPoint x="230" y="250.4508815456081" as="sourcePoint" />
            <mxPoint x="310" y="240" as="targetPoint" />
          </mxGeometry>
        </mxCell>
        <mxCell id="4wRRyNsoWkF-4CCvMTkh-37" value="" style="endArrow=none;html=1;rounded=0;exitX=0;exitY=0.75;exitDx=0;exitDy=0;" edge="1" parent="1" source="4wRRyNsoWkF-4CCvMTkh-34">
          <mxGeometry width="50" height="50" relative="1" as="geometry">
            <mxPoint x="200" y="470" as="sourcePoint" />
            <mxPoint x="290" y="420" as="targetPoint" />
            <Array as="points">
              <mxPoint x="150" y="255" />
              <mxPoint x="130" y="255" />
              <mxPoint x="130" y="420" />
            </Array>
          </mxGeometry>
        </mxCell>
        <mxCell id="4wRRyNsoWkF-4CCvMTkh-38" value="" style="endArrow=none;html=1;rounded=0;entryX=0;entryY=0.25;entryDx=0;entryDy=0;" edge="1" parent="1" target="4wRRyNsoWkF-4CCvMTkh-34">
          <mxGeometry width="50" height="50" relative="1" as="geometry">
            <mxPoint x="90" y="245" as="sourcePoint" />
            <mxPoint x="140" y="249.86" as="targetPoint" />
          </mxGeometry>
        </mxCell>
        <mxCell id="4wRRyNsoWkF-4CCvMTkh-39" value="&lt;font style=&quot;font-size: 8px;&quot;&gt;1&lt;/font&gt;" style="text;html=1;align=center;verticalAlign=middle;resizable=0;points=[];autosize=1;strokeColor=none;fillColor=none;" vertex="1" parent="1">
          <mxGeometry x="70" y="230" width="30" height="30" as="geometry" />
        </mxCell>
        <mxCell id="4wRRyNsoWkF-4CCvMTkh-40" value="" style="endArrow=none;html=1;rounded=0;exitX=0;exitY=0.2;exitDx=0;exitDy=3;exitPerimeter=0;" edge="1" parent="1" source="4wRRyNsoWkF-4CCvMTkh-29">
          <mxGeometry width="50" height="50" relative="1" as="geometry">
            <mxPoint x="80" y="470" as="sourcePoint" />
            <mxPoint x="130" y="420" as="targetPoint" />
            <Array as="points">
              <mxPoint x="30" y="220" />
              <mxPoint x="30" y="420" />
            </Array>
          </mxGeometry>
        </mxCell>
        <mxCell id="4wRRyNsoWkF-4CCvMTkh-41" value="" style="shape=or;whiteSpace=wrap;html=1;direction=north;" vertex="1" parent="1">
          <mxGeometry x="415" y="360" width="20" height="20" as="geometry" />
        </mxCell>
        <mxCell id="4wRRyNsoWkF-4CCvMTkh-42" value="" style="endArrow=none;html=1;rounded=0;entryX=0;entryY=0.75;entryDx=0;entryDy=0;entryPerimeter=0;" edge="1" parent="1" target="4wRRyNsoWkF-4CCvMTkh-41">
          <mxGeometry width="50" height="50" relative="1" as="geometry">
            <mxPoint x="430" y="400" as="sourcePoint" />
            <mxPoint x="540" y="450" as="targetPoint" />
          </mxGeometry>
        </mxCell>
        <mxCell id="4wRRyNsoWkF-4CCvMTkh-43" value="" style="endArrow=none;html=1;rounded=0;entryX=0.3333333333333333;entryY=1;entryDx=10;entryDy=0;entryPerimeter=0;exitX=1;exitY=0.5;exitDx=0;exitDy=0;exitPerimeter=0;" edge="1" parent="1" source="4wRRyNsoWkF-4CCvMTkh-41" target="4wRRyNsoWkF-4CCvMTkh-11">
          <mxGeometry width="50" height="50" relative="1" as="geometry">
            <mxPoint x="370" y="390" as="sourcePoint" />
            <mxPoint x="420" y="340" as="targetPoint" />
          </mxGeometry>
        </mxCell>
        <mxCell id="4wRRyNsoWkF-4CCvMTkh-44" value="" style="endArrow=none;html=1;rounded=0;entryX=0;entryY=0.25;entryDx=0;entryDy=0;entryPerimeter=0;exitX=0.125;exitY=0.333;exitDx=0;exitDy=0;exitPerimeter=0;" edge="1" parent="1" source="4wRRyNsoWkF-4CCvMTkh-19" target="4wRRyNsoWkF-4CCvMTkh-41">
          <mxGeometry width="50" height="50" relative="1" as="geometry">
            <mxPoint x="425" y="400" as="sourcePoint" />
            <mxPoint x="425" y="380" as="targetPoint" />
          </mxGeometry>
        </mxCell>
        <mxCell id="4wRRyNsoWkF-4CCvMTkh-45" value="" style="verticalLabelPosition=bottom;shadow=0;dashed=0;align=center;html=1;verticalAlign=top;shape=mxgraph.electrical.logic_gates.inverter_2;direction=north;" vertex="1" parent="1">
          <mxGeometry x="415" y="410" width="10" height="20" as="geometry" />
        </mxCell>
        <mxCell id="4wRRyNsoWkF-4CCvMTkh-47" value="" style="endArrow=none;html=1;rounded=0;exitX=0.125;exitY=0.667;exitDx=0;exitDy=0;exitPerimeter=0;" edge="1" parent="1" source="4wRRyNsoWkF-4CCvMTkh-19">
          <mxGeometry width="50" height="50" relative="1" as="geometry">
            <mxPoint x="370" y="450" as="sourcePoint" />
            <mxPoint x="420" y="400" as="targetPoint" />
          </mxGeometry>
        </mxCell>
        <mxCell id="4wRRyNsoWkF-4CCvMTkh-48" value="" style="endArrow=none;html=1;rounded=0;" edge="1" parent="1">
          <mxGeometry width="50" height="50" relative="1" as="geometry">
            <mxPoint x="420" y="440" as="sourcePoint" />
            <mxPoint x="420" y="430" as="targetPoint" />
          </mxGeometry>
        </mxCell>
        <mxCell id="4wRRyNsoWkF-4CCvMTkh-49" value="&lt;span style=&quot;font-size: 8px;&quot;&gt;Low&lt;/span&gt;" style="text;html=1;align=center;verticalAlign=middle;resizable=0;points=[];autosize=1;strokeColor=none;fillColor=none;fontStyle=1" vertex="1" parent="1">
          <mxGeometry x="400" y="430" width="40" height="30" as="geometry" />
        </mxCell>
        <mxCell id="4wRRyNsoWkF-4CCvMTkh-51" value="" style="shape=or;whiteSpace=wrap;html=1;direction=north;" vertex="1" parent="1">
          <mxGeometry x="240" y="310" width="20" height="20" as="geometry" />
        </mxCell>
        <mxCell id="4wRRyNsoWkF-4CCvMTkh-52" value="" style="endArrow=none;html=1;rounded=0;entryX=0;entryY=0.75;entryDx=0;entryDy=0;entryPerimeter=0;" edge="1" parent="1" target="4wRRyNsoWkF-4CCvMTkh-51">
          <mxGeometry width="50" height="50" relative="1" as="geometry">
            <mxPoint x="255" y="350" as="sourcePoint" />
            <mxPoint x="365" y="400" as="targetPoint" />
          </mxGeometry>
        </mxCell>
        <mxCell id="4wRRyNsoWkF-4CCvMTkh-53" value="" style="endArrow=none;html=1;rounded=0;entryX=0;entryY=0.25;entryDx=0;entryDy=0;entryPerimeter=0;exitX=0.125;exitY=0.333;exitDx=0;exitDy=0;exitPerimeter=0;" edge="1" parent="1" target="4wRRyNsoWkF-4CCvMTkh-51">
          <mxGeometry width="50" height="50" relative="1" as="geometry">
            <mxPoint x="245" y="349.99" as="sourcePoint" />
            <mxPoint x="250" y="330" as="targetPoint" />
          </mxGeometry>
        </mxCell>
        <mxCell id="4wRRyNsoWkF-4CCvMTkh-54" value="" style="verticalLabelPosition=bottom;shadow=0;dashed=0;align=center;html=1;verticalAlign=top;shape=mxgraph.electrical.logic_gates.inverter_2;direction=north;" vertex="1" parent="1">
          <mxGeometry x="240" y="360" width="10" height="20" as="geometry" />
        </mxCell>
        <mxCell id="4wRRyNsoWkF-4CCvMTkh-55" value="" style="endArrow=none;html=1;rounded=0;exitX=0.125;exitY=0.667;exitDx=0;exitDy=0;exitPerimeter=0;" edge="1" parent="1">
          <mxGeometry width="50" height="50" relative="1" as="geometry">
            <mxPoint x="245" y="360.01" as="sourcePoint" />
            <mxPoint x="245" y="350" as="targetPoint" />
          </mxGeometry>
        </mxCell>
        <mxCell id="4wRRyNsoWkF-4CCvMTkh-56" value="" style="endArrow=none;html=1;rounded=0;" edge="1" parent="1">
          <mxGeometry width="50" height="50" relative="1" as="geometry">
            <mxPoint x="245" y="390" as="sourcePoint" />
            <mxPoint x="245" y="380" as="targetPoint" />
          </mxGeometry>
        </mxCell>
        <mxCell id="4wRRyNsoWkF-4CCvMTkh-57" value="&lt;span style=&quot;font-size: 8px;&quot;&gt;High&lt;/span&gt;" style="text;html=1;align=center;verticalAlign=middle;resizable=0;points=[];autosize=1;strokeColor=none;fillColor=none;fontStyle=1" vertex="1" parent="1">
          <mxGeometry x="225" y="380" width="40" height="30" as="geometry" />
        </mxCell>
        <mxCell id="4wRRyNsoWkF-4CCvMTkh-58" value="" style="endArrow=none;html=1;rounded=0;" edge="1" parent="1">
          <mxGeometry width="50" height="50" relative="1" as="geometry">
            <mxPoint x="250" y="310" as="sourcePoint" />
            <mxPoint x="300" y="280" as="targetPoint" />
            <Array as="points">
              <mxPoint x="250" y="280" />
            </Array>
          </mxGeometry>
        </mxCell>
        <mxCell id="4wRRyNsoWkF-4CCvMTkh-60" value="&lt;span style=&quot;font-size: 8px;&quot;&gt;Up&lt;/span&gt;" style="text;html=1;align=center;verticalAlign=middle;resizable=0;points=[];autosize=1;strokeColor=none;fillColor=none;fontStyle=1" vertex="1" parent="1">
          <mxGeometry x="625" y="147.5" width="30" height="30" as="geometry" />
        </mxCell>
        <mxCell id="4wRRyNsoWkF-4CCvMTkh-61" value="" style="shape=or;whiteSpace=wrap;html=1;" vertex="1" parent="1">
          <mxGeometry x="570" y="147.5" width="35" height="35" as="geometry" />
        </mxCell>
        <mxCell id="4wRRyNsoWkF-4CCvMTkh-62" value="" style="endArrow=none;html=1;rounded=0;exitX=0.02;exitY=0.6;exitDx=0;exitDy=0;exitPerimeter=0;entryX=0.996;entryY=0.521;entryDx=0;entryDy=0;entryPerimeter=0;" edge="1" parent="1" source="4wRRyNsoWkF-4CCvMTkh-60" target="4wRRyNsoWkF-4CCvMTkh-61">
          <mxGeometry width="50" height="50" relative="1" as="geometry">
            <mxPoint x="585" y="220" as="sourcePoint" />
            <mxPoint x="605" y="165" as="targetPoint" />
          </mxGeometry>
        </mxCell>
        <mxCell id="4wRRyNsoWkF-4CCvMTkh-63" value="&lt;span style=&quot;color: rgb(51, 51, 51); font-size: 9px; text-wrap: wrap;&quot;&gt;Counter&lt;/span&gt;" style="text;html=1;align=center;verticalAlign=middle;resizable=0;points=[];autosize=1;strokeColor=none;fillColor=none;fontStyle=1" vertex="1" parent="1">
          <mxGeometry x="450" y="147.5" width="60" height="30" as="geometry" />
        </mxCell>
        <mxCell id="4wRRyNsoWkF-4CCvMTkh-64" value="" style="endArrow=none;html=1;rounded=0;entryX=0;entryY=0.5;entryDx=0;entryDy=0;entryPerimeter=0;exitX=0.981;exitY=0.607;exitDx=0;exitDy=0;exitPerimeter=0;" edge="1" parent="1" source="4wRRyNsoWkF-4CCvMTkh-63">
          <mxGeometry width="50" height="50" relative="1" as="geometry">
            <mxPoint x="515" y="220" as="sourcePoint" />
            <mxPoint x="570" y="165" as="targetPoint" />
          </mxGeometry>
        </mxCell>
        <mxCell id="4wRRyNsoWkF-4CCvMTkh-65" value="&lt;span style=&quot;font-size: 8px;&quot;&gt;Down&lt;/span&gt;" style="text;html=1;align=center;verticalAlign=middle;resizable=0;points=[];autosize=1;strokeColor=none;fillColor=none;fontStyle=1" vertex="1" parent="1">
          <mxGeometry x="620" y="200" width="40" height="30" as="geometry" />
        </mxCell>
        <mxCell id="4wRRyNsoWkF-4CCvMTkh-67" value="" style="endArrow=none;html=1;rounded=0;exitX=0.02;exitY=0.6;exitDx=0;exitDy=0;exitPerimeter=0;entryX=0.9;entryY=0.5;entryDx=0;entryDy=0;entryPerimeter=0;" edge="1" parent="1" target="4wRRyNsoWkF-4CCvMTkh-74">
          <mxGeometry width="50" height="50" relative="1" as="geometry">
            <mxPoint x="623.2399999999999" y="214.87999999999997" as="sourcePoint" />
            <mxPoint x="615" y="215" as="targetPoint" />
          </mxGeometry>
        </mxCell>
        <mxCell id="4wRRyNsoWkF-4CCvMTkh-68" value="&lt;span style=&quot;color: rgb(51, 51, 51); font-size: 9px; text-wrap: wrap;&quot;&gt;Counter&lt;/span&gt;" style="text;html=1;align=center;verticalAlign=middle;resizable=0;points=[];autosize=1;strokeColor=none;fillColor=none;fontStyle=1" vertex="1" parent="1">
          <mxGeometry x="450" y="200" width="60" height="30" as="geometry" />
        </mxCell>
        <mxCell id="4wRRyNsoWkF-4CCvMTkh-69" value="" style="endArrow=none;html=1;rounded=0;entryX=0;entryY=0.5;entryDx=0;entryDy=0;entryPerimeter=0;exitX=0.981;exitY=0.607;exitDx=0;exitDy=0;exitPerimeter=0;" edge="1" parent="1">
          <mxGeometry width="50" height="50" relative="1" as="geometry">
            <mxPoint x="519.4300000000001" y="215.34999999999997" as="sourcePoint" />
            <mxPoint x="580.5699999999999" y="214.64" as="targetPoint" />
          </mxGeometry>
        </mxCell>
        <mxCell id="4wRRyNsoWkF-4CCvMTkh-70" value="" style="shape=xor;whiteSpace=wrap;html=1;" vertex="1" parent="1">
          <mxGeometry x="572.5" y="200" width="30" height="30" as="geometry" />
        </mxCell>
        <mxCell id="4wRRyNsoWkF-4CCvMTkh-71" value="" style="shape=ellipse;fillColor=#0065FF;strokeColor=none;html=1;sketch=0;" vertex="1" parent="1">
          <mxGeometry x="595" y="230" width="10" as="geometry" />
        </mxCell>
        <mxCell id="4wRRyNsoWkF-4CCvMTkh-74" value="" style="verticalLabelPosition=bottom;shadow=0;dashed=0;align=center;html=1;verticalAlign=top;shape=mxgraph.electrical.logic_gates.inverting_contact;" vertex="1" parent="1">
          <mxGeometry x="602.5" y="210" width="10" height="10" as="geometry" />
        </mxCell>
      </root>
    </mxGraphModel>
  </diagram>
</mxfile>
